{
  "accessors": [
    {
      "bufferView": 2,
      "componentType": 5126,
      "count": 64270,
      "max": [
        7.8277649879455566,
        6.302645206451416,
        8.3609132766723633
      ],
      "min": [
        -5.3208107948303223,
        -11.321281433105469,
        1.1412969827651978
      ],
      "type": "VEC3"
    },
    {
      "bufferView": 2,
      "byteOffset": 771240,
      "componentType": 5126,
      "count": 64270,
      "max": [
        0.99999988079071045,
        0.99999874830245972,
        0.9999997615814209
      ],
      "min": [
        -0.99999749660491943,
        -1,
        -0.99999773502349854
      ],
      "type": "VEC3"
    },
    {
      "bufferView": 3,
      "componentType": 5126,
      "count": 64270,
      "max": [
        0.99999749660491943,
        0.9999997615814209,
        0.99999475479125977,
        1
      ],
      "min": [
        -0.99999994039535522,
        -0.99999904632568359,
        -0.99999350309371948,
        -1
      ],
      "type": "VEC4"
    },
    {
      "bufferView": 1,
      "componentType": 5126,
      "count": 64270,
      "max": [
        0.99949997663497925,
        0.99820601940155029
      ],
      "min": [
        0.00050000002374872565,
        0.00050000002374872565
      ],
      "type": "VEC2"
    },
    {
      "bufferView": 0,
      "componentType": 5125,
      "count": 374100,
      "max": [
        64269
      ],
      "min": [
        0
      ],
      "type": "SCALAR"
    },
    {
      "bufferView": 2,
      "byteOffset": 1542480,
      "componentType": 5126,
      "count": 19980,
      "max": [
        8.0589151382446289,
        5.9905462265014648,
        11.480332374572754
      ],
      "min": [
        -5.143251895904541,
        -11.346138000488281,
        7.9499740600585938
      ],
      "type": "VEC3"
    },
    {
      "bufferView": 2,
      "byteOffset": 1782240,
      "componentType": 5126,
      "count": 19980,
      "max": [
        0.99998390674591064,
        0.99965876340866089,
        0.99999886751174927
      ],
      "min": [
        -0.9999578595161438,
        -0.99990200996398926,
        -0.99999678134918213
      ],
      "type": "VEC3"
    },
    {
      "bufferView": 3,
      "byteOffset": 1028320,
      "componentType": 5126,
      "count": 19980,
      "max": [
        0.99996829032897949,
        0.95698785781860352,
        0.99996024370193481,
        1
      ],
      "min": [
        -0.99989742040634155,
        -0.99999421834945679,
        -0.99994426965713501,
        1
      ],
      "type": "VEC4"
    },
    {
      "bufferView": 1,
      "byteOffset": 514160,
      "componentType": 5126,
      "count": 19980,
      "max": [
        0.99413800239562988,
        0.99306398630142212
      ],
      "min": [
        0.0062270001508295536,
        0.004542000126093626
      ],
      "type": "VEC2"
    },
    {
      "bufferView": 0,
      "byteOffset": 1496400,
      "componentType": 5125,
      "count": 116844,
      "max": [
        19979
      ],
      "min": [
        0
      ],
      "type": "SCALAR"
    },
    {
      "bufferView": 2,
      "byteOffset": 2022000,
      "componentType": 5126,
      "count": 4,
      "max": [
        20.585638046264648,
        16.824920654296875,
        1.1362060308456421
      ],
      "min": [
        -11.810308456420898,
        -15.571025848388672,
        1.1362060308456421
      ],
      "type": "VEC3"
    },
    {
      "bufferView": 2,
      "byteOffset": 2022048,
      "componentType": 5126,
      "count": 4,
      "max": [
        0,
        -0,
        1
      ],
      "min": [
        0,
        -0,
        1
      ],
      "type": "VEC3"
    },
    {
      "bufferView": 3,
      "byteOffset": 1348000,
      "componentType": 5126,
      "count": 4,
      "max": [
        1,
        0,
        0,
        1
      ],
      "min": [
        1,
        0,
        0,
        1
      ],
      "type": "VEC4"
    },
    {
      "bufferView": 1,
      "byteOffset": 674000,
      "componentType": 5126,
      "count": 4,
      "max": [
        1,
        1
      ],
      "min": [
        0,
        0
      ],
      "type": "VEC2"
    },
    {
      "bufferView": 0,
      "byteOffset": 1963776,
      "componentType": 5125,
      "count": 6,
      "max": [
        3
      ],
      "min": [
        0
      ],
      "type": "SCALAR"
    },
    {
      "bufferView": 2,
      "byteOffset": 2022096,
      "componentType": 5126,
      "count": 2139,
      "max": [
        10.209534645080566,
        5.9797801971435547,
        11.250574111938477
      ],
      "min": [
        -4.2437520027160645,
        -11.223491668701172,
        0.98172897100448608
      ],
      "type": "VEC3"
    },
    {
      "bufferView": 2,
      "byteOffset": 2047764,
      "componentType": 5126,
      "count": 2139,
      "max": [
        1,
        1,
        1
      ],
      "min": [
        -1,
        -1,
        -1
      ],
      "type": "VEC3"
    },
    {
      "bufferView": 3,
      "byteOffset": 1348064,
      "componentType": 5126,
      "count": 2139,
      "max": [
        1,
        1,
        1,
        1
      ],
      "min": [
        -0.99996352195739746,
        -1,
        -1,
        1
      ],
      "type": "VEC4"
    },
    {
      "bufferView": 1,
      "byteOffset": 674032,
      "componentType": 5126,
      "count": 2139,
      "max": [
        0.99133402109146118,
        1.0001499652862549
      ],
      "min": [
        0.00050000002374872565,
        0.00050000002374872565
      ],
      "type": "VEC2"
    },
    {
      "bufferView": 0,
      "byteOffset": 1963800,
      "componentType": 5125,
      "count": 7098,
      "max": [
        2138
      ],
      "min": [
        0
      ],
      "type": "SCALAR"
    },
    {
      "bufferView": 2,
      "byteOffset": 2073432,
      "componentType": 5126,
      "count": 9999,
      "max": [
        15.224199295043945,
        14.040676116943359,
        2.3513998985290527
      ],
      "min": [
        0.041005000472068787,
        -11.217999458312988,
        1.0867730379104614
      ],
      "type": "VEC3"
    },
    {
      "bufferView": 2,
      "byteOffset": 2193420,
      "componentType": 5126,
      "count": 9999,
      "max": [
        0.99907213449478149,
        1,
        0.99961459636688232
      ],
      "min": [
        -0.99984902143478394,
        -0.99962645769119263,
        -0.99993449449539185
      ],
      "type": "VEC3"
    },
    {
      "bufferView": 3,
      "byteOffset": 1382288,
      "componentType": 5126,
      "count": 9999,
      "max": [
        0.99985867738723755,
        0.9997934103012085,
        0.99995756149291992,
        1
      ],
      "min": [
        -0.99957388639450073,
        -0.99985289573669434,
        -0.99495095014572144,
        1
      ],
      "type": "VEC4"
    },
    {
      "bufferView": 1,
      "byteOffset": 691144,
      "componentType": 5126,
      "count": 9999,
      "max": [
        0.995635986328125,
        0.98097002506256104
      ],
      "min": [
        0.00050000002374872565,
        0.00050000002374872565
      ],
      "type": "VEC2"
    },
    {
      "bufferView": 0,
      "byteOffset": 1992192,
      "componentType": 5125,
      "count": 9999,
      "max": [
        9998
      ],
      "min": [
        0
      ],
      "type": "SCALAR"
    },
    {
      "bufferView": 2,
      "byteOffset": 2313408,
      "componentType": 5126,
      "count": 9999,
      "max": [
        15.004499435424805,
        13.809944152832031,
        4.4917011260986328
      ],
      "min": [
        2.3143470287322998,
        -6.1057000160217285,
        1.1002000570297241
      ],
      "type": "VEC3"
    },
    {
      "bufferView": 2,
      "byteOffset": 2433396,
      "componentType": 5126,
      "count": 9999,
      "max": [
        0.99953365325927734,
        0.99987775087356567,
        0.99996066093444824
      ],
      "min": [
        -0.99958562850952148,
        -0.99779236316680908,
        -0.99997514486312866
      ],
      "type": "VEC3"
    },
    {
      "bufferView": 3,
      "byteOffset": 1542272,
      "componentType": 5126,
      "count": 9999,
      "max": [
        0.98211199045181274,
        0.99823111295700073,
        0.99996918439865112,
        1
      ],
      "min": [
        -0.99957388639450073,
        -0.99782884120941162,
        -0.99957025051116943,
        1
      ],
      "type": "VEC4"
    },
    {
      "bufferView": 1,
      "byteOffset": 771136,
      "componentType": 5126,
      "count": 9999,
      "max": [
        0.99949997663497925,
        0.98094099760055542
      ],
      "min": [
        0.00050000002374872565,
        0.00050000002374872565
      ],
      "type": "VEC2"
    },
    {
      "bufferView": 0,
      "byteOffset": 2032188,
      "componentType": 5125,
      "count": 10059,
      "max": [
        9998
      ],
      "min": [
        0
      ],
      "type": "SCALAR"
    },
    {
      "bufferView": 2,
      "byteOffset": 2553384,
      "componentType": 5126,
      "count": 1033,
      "max": [
        11.590579986572266,
        13.834320068359375,
        4.4917011260986328
      ],
      "min": [
        7.5479378700256348,
        8.7625904083251953,
        1.1002000570297241
      ],
      "type": "VEC3"
    },
    {
      "bufferView": 2,
      "byteOffset": 2565780,
      "componentType": 5126,
      "count": 1033,
      "max": [
        0.99865299463272095,
        0.99624621868133545,
        0.99932146072387695
      ],
      "min": [
        -0.99890989065170288,
        -0.99629747867584229,
        -0.99732887744903564
      ],
      "type": "VEC3"
    },
    {
      "bufferView": 3,
      "byteOffset": 1702256,
      "componentType": 5126,
      "count": 1033,
      "max": [
        0.98393845558166504,
        0.99483859539031982,
        0.99994188547134399,
        1
      ],
      "min": [
        -0.97626537084579468,
        -0.99577617645263672,
        -0.99696701765060425,
        1
      ],
      "type": "VEC4"
    },
    {
      "bufferView": 1,
      "byteOffset": 851128,
      "componentType": 5126,
      "count": 1033,
      "max": [
        0.99521797895431519,
        0.98920702934265137
      ],
      "min": [
        0.00050000002374872565,
        0.00050000002374872565
      ],
      "type": "VEC2"
    },
    {
      "bufferView": 0,
      "byteOffset": 2072424,
      "componentType": 5125,
      "count": 2604,
      "max": [
        1032
      ],
      "min": [
        0
      ],
      "type": "SCALAR"
    }
  ],
  "asset": {
    "extras": {
      "author": "Maria Stashko (https://sketchfab.com/maria_stashko)",
      "license": "CC-BY-4.0 (http://creativecommons.org/licenses/by/4.0/)",
      "source": "https://sketchfab.com/3d-models/sheep-shed-024cd7a8d35147c8b3e3064685c6bf4b",
      "title": "Sheep shed"
    },
    "generator": "Sketchfab-9.72.0",
    "version": "2.0"
  },
  "bufferViews": [
    {
      "buffer": 0,
      "byteLength": 2082840,
      "byteOffset": 0,
      "name": "floatBufferViews",
      "target": 34963
    },
    {
      "buffer": 0,
      "byteLength": 859392,
      "byteOffset": 2082840,
      "byteStride": 8,
      "name": "floatBufferViews",
      "target": 34962
    },
    {
      "buffer": 0,
      "byteLength": 2578176,
      "byteOffset": 2942232,
      "byteStride": 12,
      "name": "floatBufferViews",
      "target": 34962
    },
    {
      "buffer": 0,
      "byteLength": 1718784,
      "byteOffset": 5520408,
      "byteStride": 16,
      "name": "floatBufferViews",
      "target": 34962
    }
  ],
  "buffers": [
    {
      "byteLength": 7239192,
      "uri": "scene.bin"
    }
  ],
  "images": [
    {
      "uri": "textures/RoofSG_baseColor.png"
    },
    {
      "uri": "textures/RoofSG_metallicRoughness.png"
    },
    {
      "uri": "textures/RoofSG_normal.png"
    },
    {
      "uri": "textures/WallSG_baseColor.png"
    },
    {
      "uri": "textures/WallSG_metallicRoughness.png"
    },
    {
      "uri": "textures/WallSG_normal.png"
    },
    {
      "uri": "textures/WoodSG_baseColor.png"
    },
    {
      "uri": "textures/WoodSG_metallicRoughness.png"
    },
    {
      "uri": "textures/WoodSG_normal.png"
    },
    {
      "uri": "textures/initialShadingGroup_baseColor.png"
    },
    {
      "uri": "textures/initialShadingGroup_metallicRoughness.png"
    },
    {
      "uri": "textures/initialShadingGroup_normal.png"
    },
    {
      "uri": "textures/polySurface3SG_baseColor.png"
    },
    {
      "uri": "textures/polySurface3SG_metallicRoughness.png"
    },
    {
      "uri": "textures/polySurface3SG_normal.png"
    }
  ],
  "materials": [
    {
      "doubleSided": true,
      "name": "RoofSG",
      "normalTexture": {
        "index": 2,
        "scale": 1,
        "texCoord": 0
      },
      "occlusionTexture": {
        "index": 1,
        "strength": 1,
        "texCoord": 0
      },
      "pbrMetallicRoughness": {
        "baseColorFactor": [
          1,
          1,
          1,
          1
        ],
        "baseColorTexture": {
          "index": 0,
          "texCoord": 0
        },
        "metallicFactor": 1,
        "metallicRoughnessTexture": {
          "index": 1,
          "texCoord": 0
        },
        "roughnessFactor": 1
      }
    },
    {
      "doubleSided": true,
      "name": "WallSG",
      "normalTexture": {
        "index": 5,
        "scale": 1,
        "texCoord": 0
      },
      "occlusionTexture": {
        "index": 4,
        "strength": 1,
        "texCoord": 0
      },
      "pbrMetallicRoughness": {
        "baseColorFactor": [
          1,
          1,
          1,
          1
        ],
        "baseColorTexture": {
          "index": 3,
          "texCoord": 0
        },
        "metallicFactor": 1,
        "metallicRoughnessTexture": {
          "index": 4,
          "texCoord": 0
        },
        "roughnessFactor": 1
      }
    },
    {
      "doubleSided": true,
      "name": "WoodSG",
      "normalTexture": {
        "index": 8,
        "scale": 1,
        "texCoord": 0
      },
      "occlusionTexture": {
        "index": 7,
        "strength": 1,
        "texCoord": 0
      },
      "pbrMetallicRoughness": {
        "baseColorFactor": [
          1,
          1,
          1,
          1
        ],
        "baseColorTexture": {
          "index": 6,
          "texCoord": 0
        },
        "metallicFactor": 1,
        "metallicRoughnessTexture": {
          "index": 7,
          "texCoord": 0
        },
        "roughnessFactor": 1
      }
    },
    {
      "alphaMode": "BLEND",
      "doubleSided": true,
      "name": "initialShadingGroup",
      "normalTexture": {
        "index": 11,
        "scale": 1,
        "texCoord": 0
      },
      "pbrMetallicRoughness": {
        "baseColorFactor": [
          1,
          1,
          1,
          1
        ],
        "baseColorTexture": {
          "index": 9,
          "texCoord": 0
        },
        "metallicFactor": 1,
        "metallicRoughnessTexture": {
          "index": 10,
          "texCoord": 0
        },
        "roughnessFactor": 1
      }
    },
    {
      "doubleSided": true,
      "name": "polySurface3SG",
      "normalTexture": {
        "index": 14,
        "scale": 1,
        "texCoord": 0
      },
      "occlusionTexture": {
        "index": 13,
        "strength": 1,
        "texCoord": 0
      },
      "pbrMetallicRoughness": {
        "baseColorFactor": [
          1,
          1,
          1,
          1
        ],
        "baseColorTexture": {
          "index": 12,
          "texCoord": 0
        },
        "metallicFactor": 1,
        "metallicRoughnessTexture": {
          "index": 13,
          "texCoord": 0
        },
        "roughnessFactor": 1
      }
    }
  ],
  "meshes": [
    {
      "primitives": [
        {
          "attributes": {
            "NORMAL": 1,
            "POSITION": 0,
            "TANGENT": 2,
            "TEXCOORD_0": 3
          },
          "indices": 4,
          "material": 1,
          "mode": 4
        }
      ]
    },
    {
      "primitives": [
        {
          "attributes": {
            "NORMAL": 6,
            "POSITION": 5,
            "TANGENT": 7,
            "TEXCOORD_0": 8
          },
          "indices": 9,
          "material": 0,
          "mode": 4
        }
      ]
    },
    {
      "primitives": [
        {
          "attributes": {
            "NORMAL": 11,
            "POSITION": 10,
            "TANGENT": 12,
            "TEXCOORD_0": 13
          },
          "indices": 14,
          "material": 3,
          "mode": 4
        }
      ]
    },
    {
      "primitives": [
        {
          "attributes": {
            "NORMAL": 16,
            "POSITION": 15,
            "TANGENT": 17,
            "TEXCOORD_0": 18
          },
          "indices": 19,
          "material": 2,
          "mode": 4
        }
      ]
    },
    {
      "primitives": [
        {
          "attributes": {
            "NORMAL": 21,
            "POSITION": 20,
            "TANGENT": 22,
            "TEXCOORD_0": 23
          },
          "indices": 24,
          "material": 4,
          "mode": 4
        }
      ]
    },
    {
      "primitives": [
        {
          "attributes": {
            "NORMAL": 26,
            "POSITION": 25,
            "TANGENT": 27,
            "TEXCOORD_0": 28
          },
          "indices": 29,
          "material": 4,
          "mode": 4
        }
      ]
    },
    {
      "primitives": [
        {
          "attributes": {
            "NORMAL": 31,
            "POSITION": 30,
            "TANGENT": 32,
            "TEXCOORD_0": 33
          },
          "indices": 34,
          "material": 4,
          "mode": 4
        }
      ]
    }
  ],
  "nodes": [
    {
      "children": [
        1
      ],
      "name": "RootNode (gltf orientation matrix)",
      "rotation": [
        -0.70710678118654746,
        -0,
        -0,
        0.70710678118654757
      ]
    },
    {
      "children": [
        2
      ],
      "name": "RootNode (model correction matrix)"
    },
    {
      "children": [
        3,
        4,
        5,
        6,
        7,
        8,
        9
      ],
      "name": "Stone_house.obj.cleaner.materialmerger.gles"
    },
    {
      "mesh": 0,
      "name": ""
    },
    {
      "mesh": 1,
      "name": ""
    },
    {
      "mesh": 2,
      "name": ""
    },
    {
      "mesh": 3,
      "name": ""
    },
    {
      "mesh": 4,
      "name": ""
    },
    {
      "mesh": 5,
      "name": ""
    },
    {
      "mesh": 6,
      "name": ""
    }
  ],
  "samplers": [
    {
      "magFilter": 9729,
      "minFilter": 9987,
      "wrapS": 10497,
      "wrapT": 10497
    }
  ],
  "scene": 0,
  "scenes": [
    {
      "name": "OSG_Scene",
      "nodes": [
        0
      ]
    }
  ],
  "textures": [
    {
      "sampler": 0,
      "source": 0
    },
    {
      "sampler": 0,
      "source": 1
    },
    {
      "sampler": 0,
      "source": 2
    },
    {
      "sampler": 0,
      "source": 3
    },
    {
      "sampler": 0,
      "source": 4
    },
    {
      "sampler": 0,
      "source": 5
    },
    {
      "sampler": 0,
      "source": 6
    },
    {
      "sampler": 0,
      "source": 7
    },
    {
      "sampler": 0,
      "source": 8
    },
    {
      "sampler": 0,
      "source": 9
    },
    {
      "sampler": 0,
      "source": 10
    },
    {
      "sampler": 0,
      "source": 11
    },
    {
      "sampler": 0,
      "source": 12
    },
    {
      "sampler": 0,
      "source": 13
    },
    {
      "sampler": 0,
      "source": 14
    }
  ]
}

